<!DOCTYPE svg PUBLIC "-//W3C//DTD SVG 1.1//EN" "http://www.w3.org/Graphics/SVG/1.1/DTD/svg11.dtd">

<!-- Uploaded to: SVG Repo, www.svgrepo.com, Transformed by: SVG Repo Mixer Tools -->
<svg width="800px" height="800px" viewBox="-2.55 -2.55 22.10 22.10" version="1.1" xmlns="http://www.w3.org/2000/svg" xmlns:xlink="http://www.w3.org/1999/xlink" class="si-glyph si-glyph-mountain" fill="#d4d4d4" stroke="#d4d4d4" transform="matrix(1, 0, 0, 1, 0, 0)rotate(0)">

<g id="SVGRepo_bgCarrier" stroke-width="0" transform="translate(0,0), scale(1)">

<path transform="translate(-2.55, -2.55), scale(0.690625)" d="M16,25.772580963942936C18.222462426257746,25.19879530684162,20.500830839296118,24.93470256444692,22.269492478520007,23.4716901850186C24.048973748612667,21.999727956986785,25.214727432618062,19.966365049258673,25.73836898018277,17.717137199300602C26.28980260163462,15.348532445646173,25.978533083300444,12.979071920029018,25.252644882417243,10.657982986420397C24.29759251210154,7.604122233401843,24.027437555939823,3.275325181565918,20.949001607066275,2.402729835740777C17.82633458362924,1.5175970096997262,15.555504511045543,5.457094303111275,12.767596597153863,7.119044640111953C10.735457848313295,8.330459716499206,8.41158276741605,8.919668376319805,6.926947552119316,10.761670726844489C5.206785441350181,12.895893745855222,3.9963440674594497,15.396594200716065,3.8883570967766747,18.13560942454447C3.756183319779513,21.488106351693443,3.424901709056305,25.81468798962965,6.262923007960861,27.60419648662906C9.14340543629827,29.420478761521405,12.70281500102187,26.623833808027626,16,25.772580963942936" fill="#000000" strokewidth="0"/>

</g>

<g id="SVGRepo_tracerCarrier" stroke-linecap="round" stroke-linejoin="round" stroke="#5f82ec" stroke-width="0.544"/>

<g id="SVGRepo_iconCarrier"> <title>845</title> <defs> </defs> <g stroke-width="0.85" fill="none" fill-rule="evenodd"> <path d="M8.012,1.062 L4.035,8.87 L2.709,7.569 C2.709,7.569 -0.305,14 0.063,14 L15.965,14 L15.965,13.998 L12.627,6.898 L11.644,7.51 L8.012,1.062 L8.012,1.062 Z M5.611,7.521 L8.062,2.77 L10.347,6.851 L9.361,7.521 L8.021,6.233 L5.611,7.521 L5.611,7.521 Z" fill="#1e293b" class="si-glyph-fill"> </path> </g> </g>

</svg>