<!DOCTYPE svg PUBLIC "-//W3C//DTD SVG 1.1//EN" "http://www.w3.org/Graphics/SVG/1.1/DTD/svg11.dtd">
<!-- Uploaded to: SVG Repo, www.svgrepo.com, Transformed by: SVG Repo Mixer Tools -->
<svg version="1.1" id="mountain" xmlns="http://www.w3.org/2000/svg" xmlns:xlink="http://www.w3.org/1999/xlink" width="800px" height="800px" viewBox="-25.6 -25.6 307.20 307.20" xml:space="preserve" fill="#000000" stroke="#000000" stroke-width="0.00256">
<g id="SVGRepo_bgCarrier" stroke-width="0">
<path transform="translate(-25.6, -25.6), scale(9.6)" d="M16,27.45946569083368C18.042294779328472,27.227154578468287,20.205985211675472,28.43015993211765,22.075680778086475,27.57624254293775C23.953064620478976,26.718813805348322,24.679884474163153,24.490240018535395,25.991122129571096,22.896373668190765C27.42208010134289,21.156982070826302,30.221607498517216,19.974085720631862,30.18248819533636,17.722065843704044C30.141468111767985,15.360621849619013,26.52327893687556,14.531277909399215,25.80672153611185,12.280801098617335C25.026269256041445,9.82965097952243,27.551377869825906,6.752935563221061,26.02954026860634,4.678989328787697C24.622321983440873,2.7612452401898864,21.50762038803383,2.8815413785348363,19.15200466433585,3.211814377314237C17.015654823352723,3.5113448403371854,15.648344464069845,5.634320744504525,13.63785143852498,6.416386557325174C11.952216960671567,7.072084976216067,10.109007285602148,6.863419603334426,8.38213509169034,7.401208070446154C5.834609387050023,8.194567271234938,2.5538176975041305,8.1234147410808,1.0591585973965305,10.333686265519574C-0.3523648274137381,12.421018441606972,0.6822992602901818,15.351582007682943,1.3657324665062802,17.776921786921935C1.9960532174125705,20.013778259432048,3.5075907098765002,21.799055103817697,4.828726228332245,23.710973530296226C6.149264098399296,25.622027053098382,6.950570209997515,28.307260970603338,9.152816107361232,29.046218913141637C11.406733320090453,29.802515032554936,13.637812975142776,27.728164558849254,16,27.45946569083368" fill="#000000" strokewidth="0"/>
</g>
<g id="SVGRepo_tracerCarrier" stroke-linecap="round" stroke-linejoin="round" stroke="#CCCCCC" stroke-width="1.024"/>
<g id="SVGRepo_iconCarrier"> <style type="text/css">  .st0{fill:#1e293b;} .st1{fill:#d4d4d4;}  </style> <path class="st1" d="M130.291,232.689c-5.206,0-10.222-0.545-15.073-1.072c-4.539-0.493-8.825-0.959-12.982-0.959 c0,0-0.341,0.001-0.36,0.001c-4.266,0-8.065-2.708-9.455-6.746c-1.396-4.056-0.05-8.55,3.345-11.17 c0.868-0.67,1.741-1.325,2.615-1.966c-2.027,0.712-4.046,1.424-6.051,2.131c-11.405,4.021-23.198,8.183-35.025,11.71 c-5.834,1.737-11.103,2.584-16.106,2.584c-9.897,0-18.769-3.333-27.921-10.488c-3.696-2.89-4.886-7.961-2.862-12.192 c0.483-1.012,0.958-2.03,1.434-3.053c1.095-2.354,2.228-4.787,3.505-7.209c15.992-30.3,32.719-61.934,49.719-94.026 c3.537-6.675,9.455-17.846,20.785-17.846c3.102,0,5.972,0.827,8.783,2.295l2.627-5.076c5.777-11.159,11.551-22.31,17.312-33.472 c2.309-4.475,9.336-18.093,21.731-18.093c10.92,0,17.676,10.075,21.809,17.653c20.464,37.528,40.896,75.084,61.436,112.84 l25.793,47.404c1.842,3.387,1.574,7.528-0.688,10.649c-1.9,2.623-4.928,4.131-8.096,4.131c-0.602,0-1.207-0.054-1.813-0.165 c-3.477-0.64-6.836-1.356-10.085-2.051c-6.655-1.422-12.942-2.764-18.974-3.166c-1.891-0.126-3.811-0.189-5.705-0.189 c-15.057,0-30.194,3.972-44.995,11.803C147.596,230.865,139.746,232.688,130.291,232.689z"/> <path class="st0" d="M149.34,50.482c-9.107-16.704-17.211-16.547-25.874,0.239c-8.445,16.365-16.918,32.705-25.391,49.08 c-11.788-11.053-16.124-10.065-24.166,5.113c-16.591,31.318-33.163,62.654-49.71,94.009c-1.698,3.222-3.187,6.616-4.763,9.912 c10.268,8.026,19.992,10.675,35.01,6.199c22.248-6.636,44.094-15.455,66.313-22.269c16.536-5.07,33.429-5.123,50.357-1.259 c-24.076,6.025-47.831,12.625-69.241,29.15c16.207-0.091,32.238,6.024,48.441-2.548c17.789-9.411,36.691-14.039,56.043-12.75 c9.871,0.658,19.656,3.418,30.203,5.358C207.287,156.926,178.348,103.676,149.34,50.482z M179.745,135.99 c-23.956-12.578-46.522-1.688-68.048,13.644c-18.287,13.025-32.743,11.599-46.596-3.456c6.349-12.003,12.657-24.25,19.245-36.246 c2.831-5.152,5.138-3.187,8.128,1.032c2.148,3.031,3.571,5.505,6.892,10.799c2.936-6.369,22.75-45.182,31.394-61.396 c2.352-4.41,5.299-9.769,9.238-2.714c14.24,25.498,30.352,55.148,44.572,81.176C181.372,136.986,183.428,137.924,179.745,135.99z"/> </g>
</svg>